HIERARCHY
ROOT Hips
{
	OFFSET -0.001795 -0.223333 0.028219
	CHANNELS 6 Xposition Yposition Zposition Zrotation Yrotation Xrotation 
	JOINT LeftUpLeg
	{
		OFFSET 0.069520 -0.091406 -0.006815
		CHANNELS 3 Zrotation Yrotation Xrotation
		JOINT LeftLeg
		{
			OFFSET 0.034277 -0.375199 -0.004496
			CHANNELS 3 Zrotation Yrotation Xrotation
			JOINT LeftFoot
			{
				OFFSET -0.013596 -0.397961 -0.043693
				CHANNELS 3 Zrotation Yrotation Xrotation
				JOINT LeftToe
				{
					OFFSET 0.026358 -0.055791 0.119288
					CHANNELS 3 Zrotation Yrotation Xrotation
					End Site
					{
						OFFSET 0.000000 0.000000 0.000000
					}
				}
			}
		}
	}
	JOINT RightUpLeg
	{
		OFFSET -0.067670 -0.090522 -0.004320
		CHANNELS 3 Zrotation Yrotation Xrotation
		JOINT RightLeg
		{
			OFFSET -0.038290 -0.382569 -0.008850
			CHANNELS 3 Zrotation Yrotation Xrotation
			JOINT RightFoot
			{
				OFFSET 0.015774 -0.398415 -0.042312
				CHANNELS 3 Zrotation Yrotation Xrotation
				JOINT RightToe
				{
					OFFSET -0.025372 -0.048144 0.123348
					CHANNELS 3 Zrotation Yrotation Xrotation
					End Site
					{
						OFFSET 0.000000 0.000000 0.000000
					}
				}
			}
		}
	}
	JOINT Spine
	{
		OFFSET -0.002533 0.108963 -0.026696
		CHANNELS 3 Zrotation Yrotation Xrotation
		JOINT Spine1
		{
			OFFSET 0.005487 0.135180 0.001092
			CHANNELS 3 Zrotation Yrotation Xrotation
			JOINT Spine2
			{
				OFFSET 0.001457 0.052922 0.025425
				CHANNELS 3 Zrotation Yrotation Xrotation
				JOINT Neck
				{
					OFFSET -0.002778 0.213870 -0.042857
					CHANNELS 3 Zrotation Yrotation Xrotation
					JOINT Head
					{
						OFFSET 0.005152 0.064970 0.051349
						CHANNELS 3 Zrotation Yrotation Xrotation
						End Site
						{
							OFFSET 0.000000 0.000000 0.000000
						}
					}
				}
				JOINT LeftShoulder
				{
					OFFSET 0.078845 0.121749 -0.034090
					CHANNELS 3 Zrotation Yrotation Xrotation
					JOINT LeftArm
					{
						OFFSET 0.090977 0.030469 -0.008868
						CHANNELS 3 Zrotation Yrotation Xrotation
						JOINT LeftForeArm
						{
							OFFSET 0.259612 -0.012772 -0.027456
							CHANNELS 3 Zrotation Yrotation Xrotation
							JOINT LeftHand
							{
								OFFSET 0.249234 0.008986 -0.001171
								CHANNELS 3 Zrotation Yrotation Xrotation
								End Site
								{
									OFFSET 0.000000 0.000000 0.000000
								}
							}
						}
					}
				}
				JOINT RightShoulder
				{
					OFFSET -0.081759 0.118833 -0.038615
					CHANNELS 3 Zrotation Yrotation Xrotation
					JOINT RightArm
					{
						OFFSET -0.096012 0.032551 -0.009143
						CHANNELS 3 Zrotation Yrotation Xrotation
						JOINT RightForeArm
						{
							OFFSET -0.253742 -0.013329 -0.021401
							CHANNELS 3 Zrotation Yrotation Xrotation
							JOINT RightHand
							{
								OFFSET -0.255298 0.007772 -0.005559
								CHANNELS 3 Zrotation Yrotation Xrotation
								End Site
								{
									OFFSET 0.000000 0.000000 0.000000
								}
							}
						}
					}
				}
			}
		}
	}
}
MOTION
Frames: 5
Frame Time: 0.050000
-0.063886 0.940433 -0.186431 -1.728656 15.271530 -1.596214 2.584954 -0.126630 -0.437504 0.448238 -0.206571 3.545162 1.852345 -1.676790 -7.842703 0.000000 0.000000 0.000000 -0.003056 0.225134 -2.186570 0.832988 -0.067431 2.623011 -2.559688 -6.434097 -2.691081 0.000000 0.000000 0.000000 3.443147 -0.285127 3.626158 -5.905732 2.730817 0.726205 -4.711444 8.672534 6.521981 8.474269 -1.493576 -19.516058 0.000000 0.000000 0.000000 -16.804365 -10.601729 -0.565590 -40.722634 -9.136669 -0.737405 73.173369 -29.280779 -25.929272 0.000000 0.000000 0.000000 17.943422 13.014113 9.975648 50.634621 45.839285 15.463949 178.002542 76.003659 -167.025204 0.000000 0.000000 0.000000 
-0.062326 0.940477 -0.186541 -1.560858 16.177873 -1.428746 2.503670 -0.135796 -0.564673 0.204348 -0.169200 3.323620 1.525329 -2.543124 -7.767272 0.000000 0.000000 0.000000 -0.050357 0.225337 -2.205572 0.467174 -0.011915 2.613464 -2.849064 -7.314466 -2.627939 0.000000 0.000000 0.000000 3.467869 -0.262003 3.284430 -5.479175 2.526434 0.541010 -5.134784 7.867960 6.841882 8.800223 -1.768779 -19.273687 0.000000 0.000000 0.000000 -16.641920 -11.169498 -0.191443 -40.776820 -12.017677 0.111384 77.103284 -32.710907 -30.370766 0.000000 0.000000 0.000000 18.065461 12.337207 9.577115 52.405041 46.399307 16.542781 173.384336 75.100866 -172.818037 0.000000 0.000000 0.000000 
-0.060772 0.940895 -0.186773 -1.394576 16.827162 -1.487484 2.299530 -0.122729 -0.434531 0.150215 -0.155637 3.148074 1.255203 -3.177234 -7.627026 0.000000 0.000000 0.000000 -0.350956 0.226616 -2.329273 0.541573 -0.018718 3.187512 -3.053734 -7.926452 -2.671412 0.000000 0.000000 0.000000 3.388923 -0.252777 3.217618 -5.142498 2.373819 0.322520 -5.505817 7.328729 7.003718 8.299325 -1.422560 -19.554411 0.000000 0.000000 0.000000 -16.672284 -11.906940 0.165114 -40.953610 -14.826304 0.998766 80.906034 -36.984169 -35.948652 0.000000 0.000000 0.000000 18.296939 11.744202 9.291050 53.704577 46.683695 17.257188 171.226392 74.977324 -175.521237 0.000000 0.000000 0.000000 
-0.059370 0.940503 -0.187180 -1.430831 17.596973 -1.544561 2.299459 -0.117947 -0.285103 0.139325 -0.137482 2.787169 1.003923 -3.921555 -7.650127 0.000000 0.000000 0.000000 -0.576722 0.188202 -2.032172 0.880717 -0.084891 2.892471 -3.261022 -8.564085 -2.606825 0.000000 0.000000 0.000000 3.632758 -0.247282 3.017071 -4.797013 2.210832 0.264261 -6.001863 6.630790 7.315582 7.616283 -1.086661 -19.299717 0.000000 0.000000 0.000000 -16.480528 -12.722618 0.630239 -40.639493 -18.036217 1.970557 84.277303 -40.493574 -41.016382 0.000000 0.000000 0.000000 18.113733 11.809532 9.251720 54.353983 47.147432 17.848088 172.797867 75.397321 -173.499643 0.000000 0.000000 0.000000 
-0.058164 0.940225 -0.187739 -1.364780 17.581520 -1.615557 2.353192 -0.108940 -0.085556 -0.236221 -0.091119 2.596848 0.991233 -3.952723 -7.656761 0.000000 0.000000 0.000000 -1.005803 0.174926 -2.059043 1.357850 -0.165813 3.098222 -3.238279 -8.489865 -2.717314 0.000000 0.000000 0.000000 3.833003 -0.243314 2.881621 -4.394529 2.031178 0.194737 -6.380505 6.606665 7.335487 7.296083 -0.923313 -19.116820 0.000000 0.000000 0.000000 -15.900624 -13.747993 1.208966 -39.473508 -20.549998 2.654806 85.332210 -40.426706 -41.684485 0.000000 0.000000 0.000000 18.138966 11.651899 9.190868 54.564518 47.748915 18.308653 174.757306 76.588557 -171.052977 0.000000 0.000000 0.000000 
